<svg width="17" height="27" viewBox="0 0 17 27" fill="none" xmlns="http://www.w3.org/2000/svg">
<path fill-rule="evenodd" clip-rule="evenodd" d="M14.3125 26.9981H3.5625C2.07631 26.9981 0.875 26.1361 0.875 25.0716V1.93032C0.875 0.863895 2.07631 0 3.5625 0H14.3125C15.796 0 17 0.863895 17 1.93032V25.0716C17 26.1361 15.796 26.9981 14.3125 26.9981ZM14.3125 2.89266C14.3125 2.36234 13.7078 1.93032 12.9688 1.93032H4.90625C4.1645 1.93032 3.5625 2.36234 3.5625 2.89266V24.1055C3.5625 24.6377 4.1645 25.0716 4.90625 25.0716H12.9688C13.7078 25.0716 14.3125 24.6377 14.3125 24.1055V2.89266Z" fill="black"/>
</svg>
